# xmcd
#
# Track frame offsets: 
#        150
#        23942
#        42062
#        47525
#        59162
#        72297
#        83640
#        98832
#        113137
#        126155
#        138672
#        148950
#        164870
#        193677
#        205275
#        224710
#        238505
#        252082
#        264552
#        284402
#
# Disc length: 3965 seconds
#
# Revision: 2
# Processed by: cddbd v1.5.2PL0 Copyright (c) Steve Scherf et al.
# Submitted via: ExactAudioCopy v0.99pb4
#
DISCID=410f7b14
DTITLE=The Ike and Tina Turner Revue - Live At The Circus Krone1973
DYEAR=2000
DGENRE=Soul
TTITLE0=Intro: "Family Vibes" - "Shaft" - Eddie Burks Introduces The I
TTITLE0=kettes 
TTITLE1=I Got Cha
TTITLE2=Eddie Burks Introduces Ike+Tina Turner
TTITLE3=She Came In Through The Bathroom Window
TTITLE4=Annie Had A Baby
TTITLE5=Don't Fight It
TTITLE6=Get Back
TTITLE7=Games People Play
TTITLE8=I Can't Turn You Loose
TTITLE9=I Want To Take You Higher
TTITLE10=River Deep Mountain High
TTITLE11=Come Together
TTITLE12=Proud Mary
TTITLE13=Proud Mary - Encore
TTITLE14=Pick Me Up And Take Me
TTITLE15=With A Little Help From My Friends
TTITLE16=Honky Tonk Woman
TTITLE17=Baby Get It On
TTITLE18=Respect
TTITLE19=Nutbush City Limits
EXTD=
EXTT0=
EXTT1=
EXTT2=
EXTT3=
EXTT4=
EXTT5=
EXTT6=
EXTT7=
EXTT8=
EXTT9=
EXTT10=
EXTT11=
EXTT12=
EXTT13=
EXTT14=
EXTT15=
EXTT16=
EXTT17=
EXTT18=
EXTT19=
PLAYORDER=
